<?xml version="1.0" encoding="UTF-8"?>
<svg width="10px" height="14px" viewBox="0 0 10 14" version="1.1" xmlns="http://www.w3.org/2000/svg" xmlns:xlink="http://www.w3.org/1999/xlink">
    <!-- Generator: Sketch 51.3 (57544) - http://www.bohemiancoding.com/sketch -->
    <title>arrow/bottom</title>
    <desc>Created with Sketch.</desc>
    <defs>
        <path d="M2.29289322,0.292893219 C2.68341751,-0.0976310729 3.31658249,-0.0976310729 3.70710678,0.292893219 C4.09763107,0.683417511 4.09763107,1.31658249 3.70710678,1.70710678 L1.70710678,3.70710678 C1.31658249,4.09763107 0.683417511,4.09763107 0.292893219,3.70710678 C-0.0976310729,3.31658249 -0.0976310729,2.68341751 0.292893219,2.29289322 L2.29289322,0.292893219 Z" id="path-1"></path>
        <path d="M3.41421356,4 L13.0014708,4 C13.5529433,4 14,4.44771525 14,5 C14,5.55228475 13.5529433,6 13.0014708,6 L3.41421356,6 L5.70710678,8.29289322 C6.09763107,8.68341751 6.09763107,9.31658249 5.70710678,9.70710678 C5.31658249,10.0976311 4.68341751,10.0976311 4.29289322,9.70710678 L0.292893219,5.70710678 C-0.0976310729,5.31658249 -0.0976310729,4.68341751 0.292893219,4.29289322 L4.29289322,0.292893219 C4.68341751,-0.0976310729 5.31658249,-0.0976310729 5.70710678,0.292893219 C6.09763107,0.683417511 6.09763107,1.31658249 5.70710678,1.70710678 L3.41421356,4 Z" id="path-3"></path>
    </defs>
    <g id="Page-2" stroke="none" stroke-width="1" fill="none" fill-rule="evenodd">
        <g id="arrow/bottom" transform="translate(5.000000, 7.000000) rotate(-90.000000) translate(-5.000000, -7.000000) translate(-2.000000, 2.000000)">
            <g id="Color/Fill" transform="translate(3.000000, 1.000000)">
                <mask id="mask-2" fill="white">
                    <use xlink:href="#path-1"></use>
                </mask>
                <use id="Mask" fill="#D8D8D8" fill-rule="nonzero" xlink:href="#path-1"></use>
                <g mask="url(#mask-2)" fill="#000000">
                    <g transform="translate(-8.000000, -8.000000)">
                        <rect x="0" y="0" width="24" height="24"></rect>
                    </g>
                </g>
            </g>
            <g id="Color/Stroke">
                <mask id="mask-4" fill="white">
                    <use xlink:href="#path-3"></use>
                </mask>
                <use id="Mask" fill="#000000" fill-rule="nonzero" xlink:href="#path-3"></use>
                <g mask="url(#mask-4)" fill="#A81AE4">
                    <g transform="translate(-5.000000, -7.000000)">
                        <rect x="0" y="0" width="24" height="24"></rect>
                    </g>
                </g>
            </g>
        </g>
    </g>
</svg>