<svg width="481" height="352" viewBox="0 0 481 352" fill="none" xmlns="http://www.w3.org/2000/svg">
<g filter="url(#filter0_d)">
<rect x="18" y="54" width="445" height="256" rx="4" fill="white"/>
</g>
<path d="M42.744 288.572C42.744 287.196 42.968 286.124 43.416 285.356C43.864 284.58 44.648 284.192 45.768 284.192C46.88 284.192 47.66 284.58 48.108 285.356C48.556 286.124 48.78 287.196 48.78 288.572C48.78 289.972 48.556 291.06 48.108 291.836C47.66 292.612 46.88 293 45.768 293C44.648 293 43.864 292.612 43.416 291.836C42.968 291.06 42.744 289.972 42.744 288.572ZM47.7 288.572C47.7 287.876 47.652 287.288 47.556 286.808C47.468 286.32 47.28 285.928 46.992 285.632C46.712 285.336 46.304 285.188 45.768 285.188C45.224 285.188 44.808 285.336 44.52 285.632C44.24 285.928 44.052 286.32 43.956 286.808C43.868 287.288 43.824 287.876 43.824 288.572C43.824 289.292 43.868 289.896 43.956 290.384C44.052 290.872 44.24 291.264 44.52 291.56C44.808 291.856 45.224 292.004 45.768 292.004C46.304 292.004 46.712 291.856 46.992 291.56C47.28 291.264 47.468 290.872 47.556 290.384C47.652 289.896 47.7 289.292 47.7 288.572Z" fill="#4C5862"/>
<path d="M48.384 241.404H44.04V244.236C44.24 243.964 44.528 243.748 44.904 243.588C45.28 243.428 45.692 243.348 46.14 243.348C46.74 243.348 47.236 243.476 47.628 243.732C48.028 243.98 48.32 244.312 48.504 244.728C48.696 245.136 48.792 245.592 48.792 246.096C48.792 246.968 48.548 247.68 48.06 248.232C47.572 248.784 46.856 249.06 45.912 249.06C45.064 249.06 44.372 248.832 43.836 248.376C43.3 247.912 43 247.292 42.936 246.516H44.016C44.104 247.012 44.308 247.4 44.628 247.68C44.956 247.952 45.368 248.088 45.864 248.088C46.48 248.088 46.944 247.904 47.256 247.536C47.568 247.168 47.724 246.684 47.724 246.084C47.724 245.5 47.564 245.044 47.244 244.716C46.924 244.388 46.472 244.224 45.888 244.224C45.472 244.224 45.108 244.316 44.796 244.5C44.484 244.676 44.248 244.916 44.088 245.22H43.032V240.432H48.384V241.404ZM50.1985 244.716C50.1985 246.076 50.4225 247.136 50.8705 247.896C51.3185 248.656 52.0945 249.036 53.1985 249.036C54.3025 249.036 55.0785 248.656 55.5265 247.896C55.9825 247.136 56.2105 246.076 56.2105 244.716C56.2105 243.372 55.9825 242.32 55.5265 241.56C55.0785 240.8 54.3025 240.42 53.1985 240.42C52.0945 240.42 51.3185 240.8 50.8705 241.56C50.4225 242.312 50.1985 243.364 50.1985 244.716ZM55.1305 244.716C55.1305 245.412 55.0785 245.996 54.9745 246.468C54.8785 246.932 54.6905 247.304 54.4105 247.584C54.1305 247.864 53.7265 248.004 53.1985 248.004C52.6785 248.004 52.2785 247.864 51.9985 247.584C51.7185 247.304 51.5265 246.932 51.4225 246.468C51.3265 245.996 51.2785 245.412 51.2785 244.716C51.2785 244.028 51.3265 243.452 51.4225 242.988C51.5265 242.524 51.7185 242.156 51.9985 241.884C52.2785 241.604 52.6785 241.464 53.1985 241.464C53.7265 241.464 54.1305 241.604 54.4105 241.884C54.6905 242.156 54.8785 242.524 54.9745 242.988C55.0785 243.452 55.1305 244.028 55.1305 244.716Z" fill="#4C5862"/>
<path d="M42.156 197.56V196.54H44.58V205H43.428V197.56H42.156ZM46.2493 200.716C46.2493 202.076 46.4733 203.136 46.9213 203.896C47.3693 204.656 48.1453 205.036 49.2493 205.036C50.3533 205.036 51.1293 204.656 51.5773 203.896C52.0333 203.136 52.2613 202.076 52.2613 200.716C52.2613 199.372 52.0333 198.32 51.5773 197.56C51.1293 196.8 50.3533 196.42 49.2493 196.42C48.1453 196.42 47.3693 196.8 46.9213 197.56C46.4733 198.312 46.2493 199.364 46.2493 200.716ZM51.1813 200.716C51.1813 201.412 51.1293 201.996 51.0253 202.468C50.9293 202.932 50.7413 203.304 50.4613 203.584C50.1813 203.864 49.7773 204.004 49.2493 204.004C48.7293 204.004 48.3293 203.864 48.0493 203.584C47.7693 203.304 47.5773 202.932 47.4733 202.468C47.3773 201.996 47.3293 201.412 47.3293 200.716C47.3293 200.028 47.3773 199.452 47.4733 198.988C47.5773 198.524 47.7693 198.156 48.0493 197.884C48.3293 197.604 48.7293 197.464 49.2493 197.464C49.7773 197.464 50.1813 197.604 50.4613 197.884C50.7413 198.156 50.9293 198.524 51.0253 198.988C51.1293 199.452 51.1813 200.028 51.1813 200.716ZM53.7404 200.716C53.7404 202.076 53.9644 203.136 54.4124 203.896C54.8604 204.656 55.6364 205.036 56.7404 205.036C57.8444 205.036 58.6204 204.656 59.0684 203.896C59.5244 203.136 59.7524 202.076 59.7524 200.716C59.7524 199.372 59.5244 198.32 59.0684 197.56C58.6204 196.8 57.8444 196.42 56.7404 196.42C55.6364 196.42 54.8604 196.8 54.4124 197.56C53.9644 198.312 53.7404 199.364 53.7404 200.716ZM58.6724 200.716C58.6724 201.412 58.6204 201.996 58.5164 202.468C58.4204 202.932 58.2324 203.304 57.9524 203.584C57.6724 203.864 57.2684 204.004 56.7404 204.004C56.2204 204.004 55.8204 203.864 55.5404 203.584C55.2604 203.304 55.0684 202.932 54.9644 202.468C54.8684 201.996 54.8204 201.412 54.8204 200.716C54.8204 200.028 54.8684 199.452 54.9644 198.988C55.0684 198.524 55.2604 198.156 55.5404 197.884C55.8204 197.604 56.2204 197.464 56.7404 197.464C57.2684 197.464 57.6724 197.604 57.9524 197.884C58.2324 198.156 58.4204 198.524 58.5164 198.988C58.6204 199.452 58.6724 200.028 58.6724 200.716Z" fill="#4C5862"/>
<path d="M42.156 153.56V152.54H44.58V161H43.428V153.56H42.156ZM51.9493 153.404H47.6053V156.236C47.8053 155.964 48.0933 155.748 48.4693 155.588C48.8453 155.428 49.2573 155.348 49.7053 155.348C50.3053 155.348 50.8013 155.476 51.1933 155.732C51.5933 155.98 51.8853 156.312 52.0693 156.728C52.2613 157.136 52.3573 157.592 52.3573 158.096C52.3573 158.968 52.1133 159.68 51.6253 160.232C51.1373 160.784 50.4213 161.06 49.4773 161.06C48.6293 161.06 47.9373 160.832 47.4013 160.376C46.8653 159.912 46.5653 159.292 46.5013 158.516H47.5813C47.6693 159.012 47.8733 159.4 48.1933 159.68C48.5213 159.952 48.9333 160.088 49.4293 160.088C50.0453 160.088 50.5093 159.904 50.8213 159.536C51.1333 159.168 51.2893 158.684 51.2893 158.084C51.2893 157.5 51.1293 157.044 50.8093 156.716C50.4893 156.388 50.0373 156.224 49.4533 156.224C49.0373 156.224 48.6733 156.316 48.3613 156.5C48.0493 156.676 47.8133 156.916 47.6533 157.22H46.5973V152.432H51.9493V153.404ZM53.7638 156.716C53.7638 158.076 53.9878 159.136 54.4358 159.896C54.8838 160.656 55.6598 161.036 56.7638 161.036C57.8678 161.036 58.6438 160.656 59.0918 159.896C59.5478 159.136 59.7758 158.076 59.7758 156.716C59.7758 155.372 59.5478 154.32 59.0918 153.56C58.6438 152.8 57.8678 152.42 56.7638 152.42C55.6598 152.42 54.8838 152.8 54.4358 153.56C53.9878 154.312 53.7638 155.364 53.7638 156.716ZM58.6958 156.716C58.6958 157.412 58.6438 157.996 58.5398 158.468C58.4438 158.932 58.2558 159.304 57.9758 159.584C57.6958 159.864 57.2918 160.004 56.7638 160.004C56.2438 160.004 55.8438 159.864 55.5638 159.584C55.2838 159.304 55.0918 158.932 54.9878 158.468C54.8918 157.996 54.8438 157.412 54.8438 156.716C54.8438 156.028 54.8918 155.452 54.9878 154.988C55.0918 154.524 55.2838 154.156 55.5638 153.884C55.8438 153.604 56.2438 153.464 56.7638 153.464C57.2918 153.464 57.6958 153.604 57.9758 153.884C58.2558 154.156 58.4438 154.524 58.5398 154.988C58.6438 155.452 58.6958 156.028 58.6958 156.716Z" fill="#4C5862"/>
<path d="M42.612 116.124C43.628 115.308 44.424 114.64 45 114.12C45.576 113.592 46.06 113.044 46.452 112.476C46.852 111.9 47.052 111.336 47.052 110.784C47.052 110.264 46.924 109.856 46.668 109.56C46.42 109.256 46.016 109.104 45.456 109.104C44.912 109.104 44.488 109.276 44.184 109.62C43.888 109.956 43.728 110.408 43.704 110.976H42.648C42.68 110.08 42.952 109.388 43.464 108.9C43.976 108.412 44.636 108.168 45.444 108.168C46.268 108.168 46.92 108.396 47.4 108.852C47.888 109.308 48.132 109.936 48.132 110.736C48.132 111.4 47.932 112.048 47.532 112.68C47.14 113.304 46.692 113.856 46.188 114.336C45.684 114.808 45.04 115.36 44.256 115.992H48.384V116.904H42.612V116.124ZM49.7663 112.572C49.7663 111.196 49.9903 110.124 50.4383 109.356C50.8863 108.58 51.6703 108.192 52.7903 108.192C53.9023 108.192 54.6823 108.58 55.1303 109.356C55.5783 110.124 55.8023 111.196 55.8023 112.572C55.8023 113.972 55.5783 115.06 55.1303 115.836C54.6823 116.612 53.9023 117 52.7903 117C51.6703 117 50.8863 116.612 50.4383 115.836C49.9903 115.06 49.7663 113.972 49.7663 112.572ZM54.7223 112.572C54.7223 111.876 54.6743 111.288 54.5783 110.808C54.4903 110.32 54.3023 109.928 54.0143 109.632C53.7343 109.336 53.3263 109.188 52.7903 109.188C52.2463 109.188 51.8303 109.336 51.5423 109.632C51.2623 109.928 51.0743 110.32 50.9783 110.808C50.8903 111.288 50.8463 111.876 50.8463 112.572C50.8463 113.292 50.8903 113.896 50.9783 114.384C51.0743 114.872 51.2623 115.264 51.5423 115.56C51.8303 115.856 52.2463 116.004 52.7903 116.004C53.3263 116.004 53.7343 115.856 54.0143 115.56C54.3023 115.264 54.4903 114.872 54.5783 114.384C54.6743 113.896 54.7223 113.292 54.7223 112.572ZM57.4215 112.572C57.4215 111.196 57.6455 110.124 58.0935 109.356C58.5415 108.58 59.3255 108.192 60.4455 108.192C61.5575 108.192 62.3375 108.58 62.7855 109.356C63.2335 110.124 63.4575 111.196 63.4575 112.572C63.4575 113.972 63.2335 115.06 62.7855 115.836C62.3375 116.612 61.5575 117 60.4455 117C59.3255 117 58.5415 116.612 58.0935 115.836C57.6455 115.06 57.4215 113.972 57.4215 112.572ZM62.3775 112.572C62.3775 111.876 62.3295 111.288 62.2335 110.808C62.1455 110.32 61.9575 109.928 61.6695 109.632C61.3895 109.336 60.9815 109.188 60.4455 109.188C59.9015 109.188 59.4855 109.336 59.1975 109.632C58.9175 109.928 58.7295 110.32 58.6335 110.808C58.5455 111.288 58.5015 111.876 58.5015 112.572C58.5015 113.292 58.5455 113.896 58.6335 114.384C58.7295 114.872 58.9175 115.264 59.1975 115.56C59.4855 115.856 59.9015 116.004 60.4455 116.004C60.9815 116.004 61.3895 115.856 61.6695 115.56C61.9575 115.264 62.1455 114.872 62.2335 114.384C62.3295 113.896 62.3775 113.292 62.3775 112.572Z" fill="#4C5862"/>
<line x1="347" y1="114" x2="347" y2="289" stroke="#C2CFE0"/>
<line x1="74" y1="289.5" x2="439" y2="289.5" stroke="#D3D8DD" stroke-miterlimit="16" stroke-dasharray="8 8"/>
<line x1="74" y1="245.5" x2="439" y2="245.5" stroke="#D3D8DD" stroke-miterlimit="16" stroke-dasharray="8 8"/>
<line x1="74" y1="201.5" x2="439" y2="201.5" stroke="#D3D8DD" stroke-miterlimit="16" stroke-dasharray="8 8"/>
<line x1="74" y1="157.5" x2="439" y2="157.5" stroke="#D3D8DD" stroke-miterlimit="16" stroke-dasharray="8 8"/>
<line x1="74" y1="113.5" x2="439" y2="113.5" stroke="#D3D8DD" stroke-miterlimit="16" stroke-dasharray="8 8"/>
<mask id="mask0" mask-type="alpha" maskUnits="userSpaceOnUse" x="18" y="114" width="445" height="196">
<rect x="18" y="114" width="445" height="196" fill="#C4C4C4"/>
</mask>
<g mask="url(#mask0)">
<path opacity="0.2" d="M90.808 213.1C54.8011 212.132 20.561 257.622 11.2945 276.591V311.114H489.212L472.753 161.33C436.178 169.682 397.164 152.977 386.011 152.561C360.86 152.561 323.352 200.185 306.584 225.207C292.817 247.485 275.255 252.248 268.195 251.844C235.365 252.813 210.39 203.01 202.006 177.988C194.593 149.897 186.247 144.086 182.149 144.086C175.274 144.068 164.94 152.319 154.35 180.409C143.759 208.499 126.991 216.329 119.931 216.732C110.056 217.297 98.3094 213.1 90.808 213.1Z" fill="url(#paint0_linear)"/>
<path d="M90.808 213.1L90.7811 214.1C90.7901 214.1 90.7991 214.1 90.808 214.1L90.808 213.1ZM119.931 216.732L119.874 215.734L119.931 216.732ZM182.149 144.086L182.146 145.086L182.149 145.086L182.149 144.086ZM202.006 177.988L201.039 178.243C201.044 178.264 201.051 178.285 201.058 178.305L202.006 177.988ZM268.195 251.844L268.252 250.846C268.223 250.844 268.194 250.844 268.165 250.844L268.195 251.844ZM306.584 225.207L305.754 224.65C305.747 224.661 305.74 224.671 305.734 224.681L306.584 225.207ZM386.011 152.561L386.049 151.562C386.036 151.562 386.024 151.561 386.011 151.561V152.561ZM12.193 277.03C16.7731 267.654 27.5788 251.635 41.7154 238.091C55.8785 224.522 73.188 213.627 90.7811 214.1L90.8349 212.101C72.4211 211.605 54.6071 222.971 40.3318 236.647C26.03 250.349 15.0824 266.559 10.396 276.152L12.193 277.03ZM90.808 214.1C94.4364 214.1 99.1179 215.119 104.291 216.11C109.394 217.087 114.912 218.021 119.988 217.731L119.874 215.734C115.075 216.008 109.782 215.125 104.668 214.146C99.6235 213.18 94.6811 212.1 90.808 212.1L90.808 214.1ZM119.988 217.731C127.56 217.298 144.602 209.099 155.285 180.762L153.414 180.056C142.917 207.899 126.423 215.359 119.874 215.734L119.988 217.731ZM155.285 180.762C160.559 166.775 165.74 157.807 170.402 152.357C175.075 146.895 179.124 145.078 182.146 145.086L182.152 143.086C178.299 143.076 173.743 145.376 168.883 151.057C164.012 156.751 158.731 165.954 153.414 180.056L155.285 180.762ZM182.149 145.086C183.725 145.086 186.574 146.231 190.019 151.082C193.447 155.909 197.348 164.256 201.039 178.243L202.973 177.733C199.251 163.629 195.272 155.025 191.649 149.924C188.044 144.847 184.671 143.086 182.149 143.086L182.149 145.086ZM201.058 178.305C205.273 190.887 213.655 209.693 225.128 225.256C236.561 240.764 251.285 253.343 268.224 252.844L268.165 250.844C252.275 251.313 238.096 239.476 226.738 224.069C215.42 208.717 207.122 190.111 202.954 177.67L201.058 178.305ZM268.138 252.842C275.612 253.27 293.501 248.281 307.435 225.733L305.734 224.681C292.133 246.69 274.898 251.226 268.252 250.846L268.138 252.842ZM307.415 225.764C315.778 213.284 329.309 195.175 343.871 180.198C351.153 172.709 358.667 166.028 365.901 161.227C373.156 156.411 380.015 153.561 386.011 153.561V151.561C379.431 151.561 372.171 154.664 364.795 159.56C357.398 164.47 349.772 171.259 342.437 178.804C327.765 193.894 314.159 212.108 305.754 224.65L307.415 225.764ZM385.974 153.561C388.628 153.66 393.03 154.743 398.877 156.25C404.667 157.742 411.76 159.615 419.65 161.214C435.423 164.409 454.485 166.527 472.976 162.304L472.531 160.355C454.447 164.484 435.713 162.427 420.048 159.253C412.219 157.668 405.181 155.809 399.376 154.313C393.629 152.832 388.972 151.671 386.049 151.562L385.974 153.561Z" fill="#109CF1"/>
<path d="M352.192 173.568C352.192 176.008 349.997 178.136 347.096 178.136C344.194 178.136 342 176.008 342 173.568C342 171.129 344.194 169 347.096 169C349.997 169 352.192 171.129 352.192 173.568Z" fill="white" stroke="#109CF1" stroke-width="2"/>
</g>
<rect opacity="0.6" x="358" y="168" width="46" height="24" rx="12" fill="#192A3E"/>
<path d="M372.672 177.125V175.981H374.96V184H373.695V177.125H372.672ZM376.638 182.328V181.382L380.335 176.08H381.853V181.239H382.876V182.328H381.853V184H380.62V182.328H376.638ZM380.675 177.356L378.079 181.239H380.675V177.356ZM384.718 182.295C385.422 181.686 385.975 181.188 386.379 180.799C386.789 180.403 387.13 179.992 387.402 179.567C387.673 179.142 387.809 178.716 387.809 178.291C387.809 177.851 387.702 177.506 387.49 177.257C387.284 177.008 386.958 176.883 386.511 176.883C386.078 176.883 385.741 177.022 385.499 177.301C385.264 177.572 385.139 177.939 385.125 178.401H383.915C383.937 177.565 384.186 176.927 384.663 176.487C385.147 176.04 385.759 175.816 386.5 175.816C387.299 175.816 387.922 176.036 388.37 176.476C388.824 176.916 389.052 177.503 389.052 178.236C389.052 178.764 388.916 179.274 388.645 179.765C388.381 180.249 388.062 180.685 387.688 181.074C387.321 181.455 386.852 181.899 386.28 182.405L385.785 182.845H389.272V183.89H383.926V182.977L384.718 182.295Z" fill="white"/>
<defs>
<filter id="filter0_d" x="0" y="42" width="481" height="292" filterUnits="userSpaceOnUse" color-interpolation-filters="sRGB">
<feFlood flood-opacity="0" result="BackgroundImageFix"/>
<feColorMatrix in="SourceAlpha" type="matrix" values="0 0 0 0 0 0 0 0 0 0 0 0 0 0 0 0 0 0 127 0"/>
<feOffset dy="6"/>
<feGaussianBlur stdDeviation="9"/>
<feColorMatrix type="matrix" values="0 0 0 0 0 0 0 0 0 0 0 0 0 0 0 0 0 0 0.06 0"/>
<feBlend mode="normal" in2="BackgroundImageFix" result="effect1_dropShadow"/>
<feBlend mode="normal" in="SourceGraphic" in2="effect1_dropShadow" result="shape"/>
</filter>
<linearGradient id="paint0_linear" x1="250.253" y1="144.086" x2="249.745" y2="311.114" gradientUnits="userSpaceOnUse">
<stop stop-color="#109CF1"/>
<stop offset="1" stop-color="#109CF1" stop-opacity="0"/>
</linearGradient>
</defs>
</svg>
