<svg width="25" height="53" viewBox="0 0 25 53" version="1.1" xmlns="http://www.w3.org/2000/svg" xmlns:xlink="http://www.w3.org/1999/xlink">
<title>facebook</title>
<desc>Created using Figma</desc>
<g id="Canvas" transform="translate(497 216)">
<g id="facebook">
<g id="Group">
<g id="Facebook">
<use xlink:href="#path0_fill" transform="translate(-496.728 -216)" fill="#FFFFFF"/>
</g>
</g>
</g>
</g>
<defs>
<path id="path0_fill" d="M 5.28195 10.1257C 5.28195 11.4433 5.28195 17.3241 5.28195 17.3241L -1.04031e-07 17.3241L -1.04031e-07 26.1264L 5.28195 26.1264L 5.28195 52.2838L 16.1322 52.2838L 16.1322 26.1272L 23.4132 26.1272C 23.4132 26.1272 24.0951 21.9065 24.4256 17.2917C 23.478 17.2917 16.1732 17.2917 16.1732 17.2917C 16.1732 17.2917 16.1732 12.1708 16.1732 11.2732C 16.1732 10.3737 17.3562 9.16368 18.5255 9.16368C 19.6925 9.16368 22.1557 9.16368 24.4371 9.16368C 24.4371 7.96524 24.4371 3.82435 24.4371 3.14487e-08C 21.3915 3.14487e-08 17.9266 3.14487e-08 16.3993 3.14487e-08C 5.01374 -0.000607761 5.28195 8.81044 5.28195 10.1257Z"/>
</defs>
</svg>
