<svg width="33" height="50" viewBox="0 0 33 50" version="1.1" xmlns="http://www.w3.org/2000/svg" xmlns:xlink="http://www.w3.org/1999/xlink">
<title>google-r</title>
<desc>Created using Figma</desc>
<g id="Canvas" transform="translate(608 144)">
<g id="google-r">
<g id="Group">
<g id="Google">
<use xlink:href="#path0_fill" transform="translate(-607.51 -143.565)" fill="url(#paint0_linear)"/>
</g>
</g>
</g>
</g>
<defs>
<linearGradient id="paint0_linear" x1="0" y1="0" x2="1" y2="0" gradientUnits="userSpaceOnUse" gradientTransform="matrix(1.96183e-15 49.016 -32.0392 3.00137e-15 32.0392 -3.00137e-15)">
<stop offset="0" stop-color="#FD3FB3"/>
<stop offset="0.337017" stop-color="#FD3F81"/>
<stop offset="0.662983" stop-color="#FD3E4F"/>
<stop offset="1" stop-color="#FD3E4F"/>
</linearGradient>
<path id="path0_fill" d="M 32.0392 0L 18.8133 0C 15.3476 0 10.982 0.513034 7.32352 3.5346C 4.55942 5.91678 3.21483 9.19432 3.21483 12.1549C 3.21483 17.1714 7.0672 22.2554 13.8721 22.2554C 14.514 22.2554 15.2172 22.1901 15.9286 22.1275C 15.6072 22.897 15.283 23.5402 15.283 24.6355C 15.283 26.6299 16.3109 27.8498 17.2091 29.0082C 14.3234 29.2005 8.92823 29.5213 4.94552 31.9644C 1.15778 34.2208 4.91889e-08 37.4978 4.91889e-08 39.8146C -0.000542997 44.5752 4.49534 49.016 13.8059 49.016C 24.8493 49.016 30.6935 42.9054 30.6935 36.8546C 30.6935 32.4197 28.1255 30.2298 25.3 27.8498L 22.9877 26.0498C 22.2845 25.4698 21.3216 24.6997 21.3216 23.2832C 21.3216 21.8688 22.2845 20.9663 23.1175 20.1303C 25.8132 18.0085 28.5116 15.757 28.5116 10.997C 28.5116 6.10685 25.4271 3.53351 23.9521 2.31192L 27.9348 2.31192L 32.0392 0ZM 26.3937 39.3648C 26.3937 43.3525 23.1175 46.3103 16.9528 46.3103C 10.0844 46.3103 5.65257 43.0295 5.65257 38.465C 5.65257 33.894 9.76234 32.3555 11.1732 31.8403C 13.8716 30.9384 17.3378 30.8104 17.9146 30.8104C 18.5575 30.8104 18.8785 30.8104 19.3944 30.873C 24.2753 34.3461 26.3937 36.085 26.3937 39.3648ZM 21.2559 18.6528C 20.2279 19.6799 18.4929 20.4528 16.8871 20.4528C 11.3676 20.4528 8.86523 13.3111 8.86523 9.00315C 8.86523 7.33007 9.18672 5.59491 10.2761 4.24315C 11.3041 2.95676 13.1005 2.11967 14.7709 2.11967C 20.0992 2.11967 22.8617 9.32448 22.8617 13.9543C 22.8617 15.1144 22.7308 17.1709 21.2559 18.6528Z"/>
</defs>
</svg>
