<?xml version="1.0" encoding="UTF-8"?>
<svg xmlns="http://www.w3.org/2000/svg" xmlns:xlink="http://www.w3.org/1999/xlink" viewBox="0 0 40 40" version="1.1" width="40px" height="40px">
<g id="surface1">
<path style="fill:none;stroke-width:1;stroke-linecap:butt;stroke-linejoin:miter;stroke:#4788C7;stroke-opacity:1;stroke-miterlimit:10;" d="M 3 19 L 12 11 L 20 15 L 27 7 L 37 10 "/>
<path style=" fill:#DFF0FE;" d="M 38.5 10 C 38.5 10.828125 37.828125 11.5 37 11.5 C 36.171875 11.5 35.5 10.828125 35.5 10 C 35.5 9.171875 36.171875 8.5 37 8.5 C 37.828125 8.5 38.5 9.171875 38.5 10 Z "/>
<path style=" fill:#4788C7;" d="M 37 9 C 37.550781 9 38 9.449219 38 10 C 38 10.550781 37.550781 11 37 11 C 36.449219 11 36 10.550781 36 10 C 36 9.449219 36.449219 9 37 9 M 37 8 C 35.894531 8 35 8.894531 35 10 C 35 11.105469 35.894531 12 37 12 C 38.105469 12 39 11.105469 39 10 C 39 8.894531 38.105469 8 37 8 Z "/>
<path style=" fill:#DFF0FE;" d="M 28.5 7 C 28.5 7.828125 27.828125 8.5 27 8.5 C 26.171875 8.5 25.5 7.828125 25.5 7 C 25.5 6.171875 26.171875 5.5 27 5.5 C 27.828125 5.5 28.5 6.171875 28.5 7 Z "/>
<path style=" fill:#4788C7;" d="M 27 6 C 27.550781 6 28 6.449219 28 7 C 28 7.550781 27.550781 8 27 8 C 26.449219 8 26 7.550781 26 7 C 26 6.449219 26.449219 6 27 6 M 27 5 C 25.894531 5 25 5.894531 25 7 C 25 8.105469 25.894531 9 27 9 C 28.105469 9 29 8.105469 29 7 C 29 5.894531 28.105469 5 27 5 Z "/>
<path style=" fill:#DFF0FE;" d="M 21.5 15 C 21.5 15.828125 20.828125 16.5 20 16.5 C 19.171875 16.5 18.5 15.828125 18.5 15 C 18.5 14.171875 19.171875 13.5 20 13.5 C 20.828125 13.5 21.5 14.171875 21.5 15 Z "/>
<path style=" fill:#4788C7;" d="M 20 14 C 20.550781 14 21 14.449219 21 15 C 21 15.550781 20.550781 16 20 16 C 19.449219 16 19 15.550781 19 15 C 19 14.449219 19.449219 14 20 14 M 20 13 C 18.894531 13 18 13.894531 18 15 C 18 16.105469 18.894531 17 20 17 C 21.105469 17 22 16.105469 22 15 C 22 13.894531 21.105469 13 20 13 Z "/>
<path style=" fill:#DFF0FE;" d="M 13.5 11 C 13.5 11.828125 12.828125 12.5 12 12.5 C 11.171875 12.5 10.5 11.828125 10.5 11 C 10.5 10.171875 11.171875 9.5 12 9.5 C 12.828125 9.5 13.5 10.171875 13.5 11 Z "/>
<path style=" fill:#4788C7;" d="M 12 10 C 12.550781 10 13 10.449219 13 11 C 13 11.550781 12.550781 12 12 12 C 11.449219 12 11 11.550781 11 11 C 11 10.449219 11.449219 10 12 10 M 12 9 C 10.894531 9 10 9.894531 10 11 C 10 12.105469 10.894531 13 12 13 C 13.105469 13 14 12.105469 14 11 C 14 9.894531 13.105469 9 12 9 Z "/>
<path style=" fill:#DFF0FE;" d="M 4.5 19 C 4.5 19.828125 3.828125 20.5 3 20.5 C 2.171875 20.5 1.5 19.828125 1.5 19 C 1.5 18.171875 2.171875 17.5 3 17.5 C 3.828125 17.5 4.5 18.171875 4.5 19 Z "/>
<path style=" fill:#4788C7;" d="M 3 18 C 3.550781 18 4 18.449219 4 19 C 4 19.550781 3.550781 20 3 20 C 2.449219 20 2 19.550781 2 19 C 2 18.449219 2.449219 18 3 18 M 3 17 C 1.894531 17 1 17.894531 1 19 C 1 20.105469 1.894531 21 3 21 C 4.105469 21 5 20.105469 5 19 C 5 17.894531 4.105469 17 3 17 Z "/>
<path style="fill:none;stroke-width:1;stroke-linecap:butt;stroke-linejoin:miter;stroke:#4788C7;stroke-opacity:1;stroke-miterlimit:10;" d="M 3 33 L 12 25 L 20 29 L 28 23 L 37 21 "/>
<path style=" fill:#98CCFD;" d="M 38.5 21 C 38.5 21.828125 37.828125 22.5 37 22.5 C 36.171875 22.5 35.5 21.828125 35.5 21 C 35.5 20.171875 36.171875 19.5 37 19.5 C 37.828125 19.5 38.5 20.171875 38.5 21 Z "/>
<path style=" fill:#4788C7;" d="M 37 20 C 37.550781 20 38 20.449219 38 21 C 38 21.550781 37.550781 22 37 22 C 36.449219 22 36 21.550781 36 21 C 36 20.449219 36.449219 20 37 20 M 37 19 C 35.894531 19 35 19.894531 35 21 C 35 22.105469 35.894531 23 37 23 C 38.105469 23 39 22.105469 39 21 C 39 19.894531 38.105469 19 37 19 Z "/>
<path style=" fill:#98CCFD;" d="M 29.5 23 C 29.5 23.828125 28.828125 24.5 28 24.5 C 27.171875 24.5 26.5 23.828125 26.5 23 C 26.5 22.171875 27.171875 21.5 28 21.5 C 28.828125 21.5 29.5 22.171875 29.5 23 Z "/>
<path style=" fill:#4788C7;" d="M 28 22 C 28.550781 22 29 22.449219 29 23 C 29 23.550781 28.550781 24 28 24 C 27.449219 24 27 23.550781 27 23 C 27 22.449219 27.449219 22 28 22 M 28 21 C 26.894531 21 26 21.894531 26 23 C 26 24.105469 26.894531 25 28 25 C 29.105469 25 30 24.105469 30 23 C 30 21.894531 29.105469 21 28 21 Z "/>
<path style=" fill:#98CCFD;" d="M 21.5 29 C 21.5 29.828125 20.828125 30.5 20 30.5 C 19.171875 30.5 18.5 29.828125 18.5 29 C 18.5 28.171875 19.171875 27.5 20 27.5 C 20.828125 27.5 21.5 28.171875 21.5 29 Z "/>
<path style=" fill:#4788C7;" d="M 20 28 C 20.550781 28 21 28.449219 21 29 C 21 29.550781 20.550781 30 20 30 C 19.449219 30 19 29.550781 19 29 C 19 28.449219 19.449219 28 20 28 M 20 27 C 18.894531 27 18 27.894531 18 29 C 18 30.105469 18.894531 31 20 31 C 21.105469 31 22 30.105469 22 29 C 22 27.894531 21.105469 27 20 27 Z "/>
<path style=" fill:#98CCFD;" d="M 13.5 25 C 13.5 25.828125 12.828125 26.5 12 26.5 C 11.171875 26.5 10.5 25.828125 10.5 25 C 10.5 24.171875 11.171875 23.5 12 23.5 C 12.828125 23.5 13.5 24.171875 13.5 25 Z "/>
<path style=" fill:#4788C7;" d="M 12 24 C 12.550781 24 13 24.449219 13 25 C 13 25.550781 12.550781 26 12 26 C 11.449219 26 11 25.550781 11 25 C 11 24.449219 11.449219 24 12 24 M 12 23 C 10.894531 23 10 23.894531 10 25 C 10 26.105469 10.894531 27 12 27 C 13.105469 27 14 26.105469 14 25 C 14 23.894531 13.105469 23 12 23 Z "/>
<path style=" fill:#98CCFD;" d="M 4.5 33 C 4.5 33.828125 3.828125 34.5 3 34.5 C 2.171875 34.5 1.5 33.828125 1.5 33 C 1.5 32.171875 2.171875 31.5 3 31.5 C 3.828125 31.5 4.5 32.171875 4.5 33 Z "/>
<path style=" fill:#4788C7;" d="M 3 32 C 3.550781 32 4 32.449219 4 33 C 4 33.550781 3.550781 34 3 34 C 2.449219 34 2 33.550781 2 33 C 2 32.449219 2.449219 32 3 32 M 3 31 C 1.894531 31 1 31.894531 1 33 C 1 34.105469 1.894531 35 3 35 C 4.105469 35 5 34.105469 5 33 C 5 31.894531 4.105469 31 3 31 Z "/>
</g>
</svg>
