<svg width="61" height="76" viewBox="0 0 61 76" fill="none" xmlns="http://www.w3.org/2000/svg">
<path fill-rule="evenodd" clip-rule="evenodd" d="M48.105 59.1C48.105 62.196 45.595 64.705 42.5 64.705C39.405 64.705 36.896 62.196 36.896 59.1C36.896 56.005 39.405 53.496 42.5 53.496C45.595 53.496 48.105 56.005 48.105 59.1Z" fill="#F16C48"/>
<path fill-rule="evenodd" clip-rule="evenodd" d="M42.206 75.376C40.683 75.376 39.151 75.181 37.637 74.787C32.988 73.576 29.09 70.625 26.66 66.481L4.25601 28.681C3.48901 27.386 3.91601 25.713 5.21201 24.945C6.51001 24.178 8.18001 24.605 8.94801 25.901L31.357 63.711C33.057 66.61 35.773 68.666 39.013 69.511C42.257 70.356 45.628 69.887 48.516 68.194C51.404 66.5 53.46 63.782 54.305 60.543C55.15 57.304 54.681 53.928 52.988 51.04L34.728 21.452C33.936 20.171 34.334 18.491 35.615 17.701C36.899 16.911 38.578 17.306 39.368 18.589L57.66 48.23C62.71 56.838 59.83 67.88 51.275 72.897C48.479 74.538 45.364 75.376 42.206 75.376Z" fill="#F16C48"/>
<path fill-rule="evenodd" clip-rule="evenodd" d="M40.829 46.471C40.207 46.471 39.602 46.153 39.263 45.579L16.853 7.76898C16.342 6.90598 16.627 5.79098 17.49 5.27898C18.354 4.76798 19.469 5.05198 19.981 5.91598L42.391 43.726C42.902 44.59 42.618 45.705 41.753 46.217C41.462 46.389 41.143 46.471 40.829 46.471Z" fill="#F16C48"/>
<path fill-rule="evenodd" clip-rule="evenodd" d="M25.833 43.29C24.903 43.29 23.996 42.813 23.486 41.953L1.07498 4.143C0.307981 2.848 0.734981 1.175 2.03098 0.406996C3.32698 -0.358004 5.00098 0.0679964 5.76698 1.363L28.176 39.173C28.945 40.468 28.517 42.141 27.221 42.909C26.786 43.167 26.307 43.29 25.833 43.29Z" fill="#F16C48"/>
</svg>
