<?xml version="1.0" encoding="UTF-8"?>
<svg width="44px" height="40px" viewBox="0 0 44 40" version="1.1" xmlns="http://www.w3.org/2000/svg" xmlns:xlink="http://www.w3.org/1999/xlink">
    <!-- Generator: Sketch 51.3 (57544) - http://www.bohemiancoding.com/sketch -->
    <title>LinkedIn</title>
    <desc>Created with Sketch.</desc>
    <defs>
        <linearGradient x1="-49.21875%" y1="-46.7692057%" x2="152.286784%" y2="153.100586%" id="linearGradient-1">
            <stop stop-color="#A81AE4" offset="0%"></stop>
            <stop stop-color="#F16C48" offset="100%"></stop>
        </linearGradient>
    </defs>
    <g id="Page-1" stroke="none" stroke-width="1" fill="none" fill-rule="evenodd">
        <path d="M44,40 L34.2753998,40 L34.2753998,25.9384005 C34.2753998,22.257796 32.7542333,19.7451495 29.4092192,19.7451495 C26.8506585,19.7451495 25.4277987,21.4407377 24.7655221,23.0748543 C24.5171684,23.6613946 24.5559737,24.478453 24.5559737,25.2955113 L24.5559737,40 L14.9219191,40 C14.9219191,40 15.046096,15.0912467 14.9219191,12.8270474 L24.5559737,12.8270474 L24.5559737,17.0916309 C25.1251176,15.2269962 28.2036689,12.5657937 33.1164158,12.5657937 C39.2114299,12.5657937 44,16.4743549 44,24.8908241 L44,40 L44,40 Z M5.17920978,9.42818723 L5.11712135,9.42818723 C2.01269991,9.42818723 0,7.35096369 0,4.71793558 C0,2.03368124 2.07220132,0 5.23871119,0 C8.40263405,0 10.3480715,2.02855862 10.4101599,4.71025165 C10.4101599,7.34327976 8.40263405,9.42818723 5.17920978,9.42818723 L5.17920978,9.42818723 L5.17920978,9.42818723 Z M1.10983067,12.8270474 L9.68579492,12.8270474 L9.68579492,40 L1.10983067,40 L1.10983067,12.8270474 L1.10983067,12.8270474 Z" id="LinkedIn" fill="url(#linearGradient-1)"></path>
    </g>
</svg>