<svg width="63" height="63" viewBox="0 0 63 63" fill="none" xmlns="http://www.w3.org/2000/svg">
<path fill-rule="evenodd" clip-rule="evenodd" d="M29.999 26.573C26.971 26.573 24.507 24.109 24.507 21.081C24.507 18.053 26.971 15.589 29.999 15.589C33.029 15.589 35.492 18.053 35.492 21.081C35.492 24.109 33.029 26.573 29.999 26.573ZM29.999 19.224C28.975 19.224 28.143 20.057 28.143 21.081C28.143 22.105 28.975 22.938 29.999 22.938C31.024 22.938 31.857 22.105 31.857 21.081C31.857 20.057 31.024 19.224 29.999 19.224Z" fill="black"/>
<path fill-rule="evenodd" clip-rule="evenodd" d="M46.261 55.776C43.232 55.776 40.769 53.312 40.769 50.284C40.769 47.256 43.232 44.792 46.261 44.792C49.289 44.792 51.753 47.256 51.753 50.284C51.753 53.312 49.289 55.776 46.261 55.776ZM46.261 48.427C45.237 48.427 44.404 49.26 44.404 50.284C44.404 51.308 45.237 52.141 46.261 52.141C47.285 52.141 48.117 51.308 48.117 50.284C48.117 49.26 47.285 48.427 46.261 48.427Z" fill="black"/>
<path fill-rule="evenodd" clip-rule="evenodd" d="M22.94 49.594C17.542 49.594 13.151 45.202 13.151 39.804C13.151 34.406 17.542 30.015 22.94 30.015C28.338 30.015 32.729 34.406 32.729 39.804C32.729 45.202 28.338 49.594 22.94 49.594ZM22.94 33.65C19.547 33.65 16.786 36.41 16.786 39.804C16.786 43.198 19.547 45.958 22.94 45.958C26.333 45.958 29.094 43.198 29.094 39.804C29.094 36.41 26.333 33.65 22.94 33.65Z" fill="black"/>
<path fill-rule="evenodd" clip-rule="evenodd" d="M31.823 62.839C18.251 62.839 6.05499 53.749 2.16599 40.733C-0.202011 32.807 0.657989 24.434 4.58699 17.156C8.51699 9.87902 15.045 4.56602 22.97 2.19802C25.864 1.33402 28.85 0.89502 31.846 0.89502C45.419 0.89502 57.614 9.98502 61.503 23.002C63.872 30.927 63.012 39.298 59.082 46.578C55.153 53.856 48.624 59.168 40.7 61.536C37.805 62.401 34.818 62.839 31.823 62.839ZM31.846 6.34802C29.379 6.34802 26.919 6.71002 24.531 7.42402C18.002 9.37502 12.623 13.75 9.38599 19.748C6.14799 25.744 5.43999 32.642 7.38999 39.171C10.595 49.895 20.642 57.386 31.823 57.386C34.289 57.386 36.751 57.024 39.138 56.31C45.668 54.36 51.046 49.984 54.284 43.986C57.522 37.99 58.23 31.092 56.279 24.564C53.074 13.839 43.027 6.34802 31.846 6.34802Z" fill="black"/>
<path fill-rule="evenodd" clip-rule="evenodd" d="M20.785 17.441C20.785 18.797 19.686 19.897 18.329 19.897C16.973 19.897 15.874 18.797 15.874 17.441C15.874 16.085 16.973 14.986 18.329 14.986C19.686 14.986 20.785 16.085 20.785 17.441Z" fill="black"/>
<path fill-rule="evenodd" clip-rule="evenodd" d="M40.429 40.768C40.429 42.125 39.33 43.224 37.973 43.224C36.617 43.224 35.518 42.125 35.518 40.768C35.518 39.412 36.617 38.313 37.973 38.313C39.33 38.313 40.429 39.412 40.429 40.768Z" fill="black"/>
<path fill-rule="evenodd" clip-rule="evenodd" d="M50.011 21.87C50.011 23.209 48.926 24.294 47.588 24.294C46.249 24.294 45.164 23.209 45.164 21.87C45.164 20.532 46.249 19.447 47.588 19.447C48.926 19.447 50.011 20.532 50.011 21.87Z" fill="black"/>
</svg>
