<?xml version="1.0" encoding="UTF-8"?>
<svg width="57px" height="82px" viewBox="0 0 57 82" version="1.1" xmlns="http://www.w3.org/2000/svg" xmlns:xlink="http://www.w3.org/1999/xlink">
    <!-- Generator: Sketch 51.3 (57544) - http://www.bohemiancoding.com/sketch -->
    <title>ROCKET</title>
    <desc>Created with Sketch.</desc>
    <defs></defs>
    <g id="Page-1" stroke="none" stroke-width="1" fill="none" fill-rule="evenodd">
        <g id="ROCKET" transform="translate(28.500000, 41.000000) rotate(180.000000) translate(-28.500000, -41.000000) ">
            <path d="M35.102,24.455 C35.102,27.963 32.258,30.808 28.749,30.808 C25.24,30.808 22.396,27.963 22.396,24.455 C22.396,20.946 25.24,18.101 28.749,18.101 C32.258,18.101 35.102,20.946 35.102,24.455 Z" id="Shape" stroke="#FFFFFE" stroke-width="3"></path>
            <path d="M28.464,71.146 C18.749,71.146 11.424,56.006 11.424,35.928 C11.424,15.851 18.749,0.710999 28.464,0.710999 C38.179,0.710999 45.505,15.851 45.505,35.928 C45.505,56.006 38.179,71.146 28.464,71.146 Z M28.464,6.164 C22.994,6.164 16.877,18.893 16.877,35.928 C16.877,52.964 22.994,65.693 28.464,65.693 C33.945,65.693 40.052,53.47 40.052,35.928 C40.052,18.387 33.945,6.164 28.464,6.164 Z" id="Shape" fill="#FFFFFE"></path>
            <path d="M6.024,68.217 C5.744,68.217 5.458,68.188 5.165,68.13 C2.921,67.681 1.278,65.582 0.539002,62.226 C-0.0889983,59.375 -0.0329983,55.802 0.697002,52.168 C1.963,45.867 5.447,39.086 10.114,39.086 C10.405,39.086 10.694,39.115 10.982,39.172 C12.673,39.511 14.258,40.916 15.334,43.027 C16.791,45.888 17.551,50.676 15.318,55.534 C14.903,56.439 14.509,57.314 14.134,58.147 C11.411,64.21 9.611,68.217 6.024,68.217 Z M10.256,42.736 C8.509,42.736 5.523,46.6 4.261,52.885 C3.636,55.99 3.574,59.109 4.089,61.443 C4.56,63.577 5.348,64.459 5.88,64.565 L6.024,64.581 C7.259,64.581 9.15,60.371 10.818,56.657 C11.198,55.814 11.594,54.932 12.017,54.014 C13.706,50.337 13.165,46.779 12.095,44.676 C11.479,43.465 10.731,42.83 10.266,42.736 C10.263,42.736 10.259,42.736 10.256,42.736 Z" id="Shape" fill="#FFFFFE"></path>
            <path d="M50.024,68.302 C46.158,68.302 44.257,63.333 41.85,57.044 L41.122,55.156 C39.168,50.12 40.188,45.365 41.797,42.594 C42.975,40.561 44.566,39.301 46.27,39.046 C46.486,39.013 46.705,38.997 46.923,38.997 C51.485,38.997 54.891,45.807 55.899,52.534 C56.45,56.2 56.329,59.769 55.56,62.586 C54.657,65.904 52.912,67.917 50.649,68.256 C50.438,68.288 50.23,68.302 50.024,68.302 Z M46.923,42.633 C46.353,42.709 45.599,43.286 44.94,44.418 C43.756,46.458 43.023,50.005 44.512,53.839 L45.244,55.745 C46.685,59.51 48.659,64.667 50.024,64.667 L50.109,64.659 C50.647,64.58 51.479,63.738 52.053,61.629 C52.683,59.324 52.774,56.205 52.303,53.074 C51.334,46.605 48.517,42.633 46.923,42.633 Z" id="Shape" fill="#FFFFFE"></path>
            <polygon id="Shape" fill="#FFFFFE" points="15.695 46.843 42.505 46.843 42.505 50.478 15.695 50.478"></polygon>
            <path d="M27.123,73.565 C27.123,74.249 27.677,74.803 28.361,74.803 C29.044,74.803 29.599,74.249 29.599,73.565 C29.599,72.882 29.045,72.328 28.361,72.328 C27.677,72.328 27.123,72.882 27.123,73.565" id="Shape" fill="#FFFFFE"></path>
            <path d="M28.98,76.969 C28.98,77.653 29.534,78.207 30.217,78.207 C30.901,78.207 31.455,77.653 31.455,76.969 C31.455,76.286 30.901,75.732 30.217,75.732 C29.534,75.732 28.98,76.286 28.98,76.969" id="Shape" fill="#FFFFFE"></path>
            <path d="M26.814,80.373 C26.814,81.057 27.368,81.611 28.051,81.611 C28.735,81.611 29.289,81.057 29.289,80.373 C29.289,79.69 28.735,79.135 28.051,79.135 C27.368,79.135 26.814,79.69 26.814,80.373" id="Shape" fill="#FFFFFE"></path>
            <path d="M30.836,80.373 C30.836,81.057 31.39,81.611 32.074,81.611 C32.758,81.611 33.312,81.057 33.312,80.373 C33.312,79.69 32.757,79.135 32.074,79.135 C31.39,79.135 30.836,79.69 30.836,80.373" id="Shape" fill="#FFFFFE"></path>
            <path d="M23.1,80.373 C23.1,81.057 23.654,81.611 24.338,81.611 C25.022,81.611 25.576,81.057 25.576,80.373 C25.576,79.69 25.021,79.135 24.338,79.135 C23.654,79.135 23.1,79.69 23.1,80.373" id="Shape" fill="#FFFFFE"></path>
            <path d="M27.432,76.969 C27.432,76.286 26.878,75.731 26.195,75.732 C25.511,75.732 24.957,76.285 24.957,76.969 C24.957,77.653 25.511,78.207 26.195,78.207 C26.878,78.207 27.432,77.653 27.432,76.969" id="Shape" fill="#FFFFFE"></path>
        </g>
    </g>
</svg>