<svg width="62" height="83" viewBox="0 0 62 83" fill="none" xmlns="http://www.w3.org/2000/svg">
<path fill-rule="evenodd" clip-rule="evenodd" d="M31.341 12.385C28.088 12.385 25.442 9.73901 25.442 6.48601C25.442 3.23301 28.088 0.587006 31.341 0.587006C34.594 0.587006 37.239 3.23301 37.239 6.48601C37.239 9.73901 34.594 12.385 31.341 12.385ZM31.341 4.22301C30.093 4.22301 29.078 5.23801 29.078 6.48601C29.078 7.73501 30.093 8.75001 31.341 8.75001C32.589 8.75001 33.604 7.73501 33.604 6.48601C33.604 5.23801 32.589 4.22301 31.341 4.22301Z" fill="#FFFFFE"/>
<path fill-rule="evenodd" clip-rule="evenodd" d="M29.523 73.436C15.658 73.436 4.379 62.157 4.379 48.292C4.379 34.428 15.658 23.148 29.523 23.148C43.387 23.148 54.667 34.428 54.667 48.292C54.667 62.157 43.387 73.436 29.523 73.436ZM29.523 28.601C18.665 28.601 9.832 37.435 9.832 48.292C9.832 59.15 18.665 67.983 29.523 67.983C40.38 67.983 49.214 59.15 49.214 48.292C49.214 37.435 40.38 28.601 29.523 28.601Z" fill="#FFFFFE"/>
<path fill-rule="evenodd" clip-rule="evenodd" d="M59.822 18.449C56.208 15.107 47.653 18.011 37.751 25.102C39.081 25.43 40.203 26.029 41.119 26.82C47.625 22.423 52.909 20.662 55.121 22.707C59.088 26.376 52.264 41.11 39.179 55.26C26.094 69.409 11.702 77.616 7.73499 73.947C5.72899 72.092 6.66899 67.458 9.74399 61.521C8.52999 60.669 7.61599 59.521 7.00699 58.216C0.519994 68.82 -1.82301 77.764 1.83799 81.149C7.45499 86.343 24.988 76.518 41 59.204C57.012 41.889 65.439 23.643 59.822 18.449Z" fill="#FFFFFE"/>
</svg>
