<svg width="63" height="63" viewBox="0 0 63 63" fill="none" xmlns="http://www.w3.org/2000/svg">
<path fill-rule="evenodd" clip-rule="evenodd" d="M13.344 18.297C9.309 18.297 6.026 15.014 6.026 10.98C6.026 6.94401 9.309 3.66101 13.344 3.66101C17.379 3.66101 20.662 6.94401 20.662 10.98C20.662 15.014 17.379 18.297 13.344 18.297ZM13.344 7.29601C11.314 7.29601 9.661 8.94901 9.661 10.98C9.661 13.01 11.314 14.662 13.344 14.662C15.375 14.662 17.027 13.01 17.027 10.98C17.027 8.94901 15.375 7.29601 13.344 7.29601Z" fill="#FFFFFE"/>
<path fill-rule="evenodd" clip-rule="evenodd" d="M47.578 35.702C44.844 35.702 42.62 33.477 42.62 30.744C42.62 28.01 44.844 25.787 47.578 25.787C50.311 25.787 52.535 28.01 52.535 30.744C52.535 33.477 50.311 35.702 47.578 35.702ZM47.578 29.422C46.848 29.422 46.255 30.015 46.255 30.744C46.255 31.473 46.848 32.066 47.578 32.066C48.307 32.066 48.899 31.473 48.899 30.744C48.899 30.015 48.307 29.422 47.578 29.422Z" fill="#FFFFFE"/>
<path fill-rule="evenodd" clip-rule="evenodd" d="M31.835 48.205C22.083 48.205 14.149 40.271 14.149 30.519C14.149 20.767 22.083 12.834 31.835 12.834C40.15 12.834 47.242 18.489 49.081 26.587L45.536 27.393C44.076 20.961 38.442 16.469 31.835 16.469C24.088 16.469 17.785 22.772 17.785 30.519C17.785 38.267 24.088 44.57 31.835 44.57C38.533 44.57 44.33 39.808 45.62 33.249L49.188 33.95C47.563 42.21 40.266 48.205 31.835 48.205Z" fill="#FFFFFE"/>
<path fill-rule="evenodd" clip-rule="evenodd" d="M36.687 31.306C36.687 33.986 34.515 36.158 31.835 36.158C29.155 36.158 26.982 33.986 26.982 31.306C26.982 28.626 29.155 26.454 31.835 26.454C34.515 26.454 36.687 28.626 36.687 31.306Z" fill="#FFFFFE"/>
<path fill-rule="evenodd" clip-rule="evenodd" d="M31.835 62.453C14.66 62.453 0.687988 48.48 0.687988 31.306C0.687988 24.353 2.92999 17.775 7.17199 12.283L11.487 15.616C7.98999 20.144 6.14099 25.57 6.14099 31.306C6.14099 45.473 17.667 57 31.835 57C46.002 57 57.528 45.473 57.528 31.306C57.528 17.138 46.002 5.613 31.835 5.613C27.132 5.613 22.534 6.893 18.537 9.316L15.709 4.653C20.559 1.714 26.135 0.160004 31.835 0.160004C49.009 0.160004 62.981 14.132 62.981 31.306C62.981 48.48 49.009 62.453 31.835 62.453Z" fill="#FFFFFE"/>
</svg>
