<svg width="58" height="40" viewBox="0 0 58 40" version="1.1" xmlns="http://www.w3.org/2000/svg" xmlns:xlink="http://www.w3.org/1999/xlink">
<title>twitter-r</title>
<desc>Created using Figma</desc>
<g id="Canvas" transform="translate(620 18)">
<g id="twitter-r">
<g id="Group">
<g id="Twitter  x28 alt x29">
<use xlink:href="#path0_fill" transform="translate(-620 -17.2128)" fill="url(#paint0_linear)"/>
</g>
</g>
</g>
</g>
<defs>
<linearGradient id="paint0_linear" x1="0" y1="0" x2="1" y2="0" gradientUnits="userSpaceOnUse" gradientTransform="matrix(3.49146e-15 39.2128 -57.0199 2.40109e-15 57.0199 -2.40109e-15)">
<stop offset="0" stop-color="#FD3FB3"/>
<stop offset="0.337017" stop-color="#FD3F81"/>
<stop offset="0.662983" stop-color="#FD3E4F"/>
<stop offset="1" stop-color="#FD3E4F"/>
</linearGradient>
<path id="path0_fill" d="M 50.5594 17.4334C 53.7619 17.1696 55.9341 15.7163 56.7701 13.7443C 55.6149 14.4527 52.0289 15.225 50.0485 14.4895C 49.9515 14.025 49.843 13.5838 49.7366 13.1854C 48.2275 7.65394 43.0608 3.19757 37.6471 3.73592C 38.0851 3.55938 38.5294 3.39502 38.9723 3.24746C 39.5682 3.03439 43.0644 2.46653 42.5138 1.23459C 42.0499 0.150999 37.7782 2.0535 36.974 2.30216C 38.0357 1.90356 39.7916 1.21791 39.9797 -2.34242e-07C 38.3531 0.222726 36.7563 0.990422 35.5225 2.1067C 35.9679 1.62803 36.3058 1.04468 36.3775 0.416867C 32.0391 3.18367 29.5048 8.76175 27.4538 14.1727C 25.8434 12.6147 24.416 11.3877 23.1355 10.7065C 19.5433 8.78345 15.2483 6.77706 8.50598 4.27851C 8.29904 6.50537 9.60921 9.46632 13.3845 11.4354C 12.5665 11.3261 11.0708 11.57 9.87448 11.856C 10.3617 14.4071 11.9528 16.5089 16.2602 17.5252C 14.2917 17.6549 13.2743 18.1021 12.3523 19.0659C 13.2489 20.8402 15.4366 22.9283 19.3722 22.4997C 14.9967 24.3823 17.5881 27.8688 21.1485 27.3488C 15.0747 33.6115 5.4988 33.1512 0 27.9131C 14.357 47.4426 45.5658 39.4629 50.2167 20.6522C 53.7013 20.6819 55.7497 19.4473 57.0199 18.0862C 55.0123 18.4263 52.1024 18.0748 50.5594 17.4334Z"/>
</defs>
</svg>
